<!-- public/favicon.svg -->
<svg xmlns="http://www.w3.org/2000/svg" viewBox="0 0 64 64" role="img" aria-label="Taste Record">
  <!-- background -->
  <rect x="2" y="2" width="60" height="60" rx="14" fill="#F7F0E6"/>

  <!-- book cover -->
  <rect x="14" y="14" width="36" height="40" rx="10" fill="#FFFFFF" opacity="0.85" stroke="#C9A961" stroke-opacity="0.55" stroke-width="2"/>
  <!-- spine -->
  <rect x="14" y="14" width="7" height="40" rx="10" fill="#8B6F47"/>
  <rect x="20" y="14" width="1" height="40" fill="#2B1D12" opacity="0.12"/>

  <!-- image window -->
  <rect x="25" y="20" width="21" height="16" rx="5" fill="#FFFFFF" opacity="0.75" stroke="#C9A961" stroke-opacity="0.35" stroke-width="1.5"/>
  <path d="M29 33l4-5 4 4 3-3 6 6H29z" fill="#8B6F47" opacity="0.55"/>
  <circle cx="31" cy="24" r="2" fill="#8B6F47" opacity="0.45"/>

  <!-- heart -->
  <path d="M39.5 41.5c-1.7-1.9-4.6-1.4-5.7.7-1.1-2.1-4-2.6-5.7-.7-1.2 1.3-1.1 3.3.3 4.6l5.4 5.1 5.4-5.1c1.4-1.3 1.5-3.3.3-4.6z"
        fill="#C9A961"/>
</svg>